<?xml version="1.0" encoding="UTF-8" standalone="no"?>
<!-- Created with Inkscape (http://www.inkscape.org/) -->
<svg
   xmlns:svg="http://www.w3.org/2000/svg"
   xmlns="http://www.w3.org/2000/svg"
   version="1.0"
   width="800"
   height="81.152"
   viewBox="0 0 800 81.152"
   id="Layer_1"
   xml:space="preserve"><defs
   id="defs46" />
<path
   d="M 6.528,26.53 C 6.528,18.237 6.528,14.587 6.417,10.67 C 6.326,6.823 5.599,6.199 0.249,6.104 L 0.306,4.127 C 2.182,4.127 5.478,4.399 9.538,4.399 C 12.976,4.399 17.227,4.127 20.246,4.127 L 20.192,6.104 C 15.276,6.184 14.705,7.243 14.487,10.497 C 14.265,13.369 14.21,18.709 14.047,25.154 L 14.047,38.934 C 16.446,39.05 20.702,39.079 25.095,39.079 C 29.578,39.079 34.277,39.051 37.648,38.934 L 37.648,25.184 C 37.648,17.242 37.629,12.918 37.431,9.759 C 37.27,7.221 36.419,6.225 31.617,6.103 L 31.654,4.126 C 35.556,4.39 39.258,4.398 41.907,4.398 C 45.385,4.398 49.548,4.173 51.53,4.126 L 51.53,6.103 C 46.397,6.225 45.548,7.008 45.437,10.664 C 45.284,14.426 45.173,18.89 45.173,25.841 L 45.173,55.258 C 45.173,64.494 45.299,70.113 45.447,73.913 C 45.618,76.913 46.26,77.493 51.457,77.887 L 51.382,79.848 C 48.909,79.754 44.642,79.594 41.002,79.594 C 37.685,79.594 33.6,79.661 31.465,79.848 L 31.465,77.887 C 36.519,77.721 37.209,76.825 37.367,73.804 C 37.463,71.129 37.649,67.47 37.649,56.107 L 37.649,41.774 C 34.681,41.657 29.96,41.494 25.388,41.494 C 20.814,41.494 16.447,41.657 14.048,41.774 L 14.048,55.96 C 14.048,64.992 14.245,69.955 14.434,73.603 C 14.569,77.324 15.49,77.825 20.349,77.888 L 20.349,79.849 C 17.881,79.849 14.144,79.595 9.286,79.595 C 5.612,79.595 2.062,79.849 0.003,79.849 L 0.003,77.888 C 5.284,77.774 5.874,76.884 6.132,73.898 C 6.264,71.109 6.531,66.649 6.531,54.561 L 6.531,26.53"
   id="path3" />
<path
   d="M 75.941,48.323 C 73.064,49.944 69.995,51.536 66.138,53.599 C 62.863,55.365 60.552,56.599 58.412,58.301 C 55.486,60.515 54.205,63.969 54.205,67.977 C 54.205,74.824 57.997,80.987 64.329,80.987 C 68.298,80.987 72.743,78.011 76.088,73.381 C 76.746,78.286 79.457,80.987 83.586,80.987 C 86.272,80.987 88.248,80.06 89.087,79.144 L 89.234,77.473 C 88.572,77.752 87.956,77.87 87.081,77.87 C 84.952,77.87 82.88,76.359 82.88,71.397 C 82.88,62.559 82.88,42.45 82.88,38.87 C 82.88,37.147 82.564,35.012 81.646,33.587 C 80.365,31.515 77.45,28.575 71.362,28.575 C 62.487,28.575 56.604,35.574 56.604,40.216 C 56.604,41.848 57.406,42.684 58.629,43.235 C 59.827,43.809 61.051,43.983 61.998,43.887 L 63,43.052 C 63.324,35.919 65.75,30.679 70.457,30.679 C 74.628,30.679 75.942,34.223 75.942,39.245 L 75.942,48.323 M 61.994,66.523 C 61.994,60.78 64.147,58.173 66.392,56.516 C 70.069,53.749 73.395,52.308 75.941,50.961 L 76.014,64.489 C 76.014,65.819 75.957,67.759 75.701,68.706 C 73.895,74.005 71.07,76.603 67.924,76.603 C 64.015,76.603 61.994,72.117 61.994,66.642 L 61.994,66.523 L 61.994,66.523 z "
   id="path5" />
<path
   d="M 96.456,48.969 C 96.456,40.884 95.92,36.111 95.672,34.204 C 95.465,33.047 94.893,32.561 93.797,32.537 L 90.514,32.537 L 90.985,30.832 C 93.391,30.579 95.425,30.322 97.482,29.962 C 99.648,29.613 101.179,29.22 101.883,29.016 L 102.235,29.412 C 102.6,32.861 102.944,38.304 102.949,40.111 L 103.293,40.111 C 105.234,35.288 108.333,28.559 114.436,28.559 C 116.53,28.559 117.903,29.751 118.348,30.965 C 118.136,31.915 116.672,36.678 116.346,37.498 L 115.23,37.498 C 114.33,36.318 112.333,34.955 110.31,34.955 C 107.691,34.955 105.417,38.999 104.305,42.893 C 103.617,45.199 103.399,46.968 103.399,50.078 C 103.399,67.099 103.399,71.721 103.616,74.784 C 103.748,77.107 104.284,77.657 110.468,77.889 L 110.194,79.85 C 107.814,79.829 103.262,79.596 99.537,79.596 C 95.886,79.596 92.947,79.829 90.582,79.85 L 90.874,77.889 C 95.06,77.728 95.727,77.03 95.921,75.064 C 96.224,72.362 96.457,67.399 96.457,60.793 L 96.457,48.969"
   id="path7" />
<path
   d="M 116.476,29.709 C 118.626,29.862 121.78,29.983 124.577,29.968 C 127.382,29.968 131.361,29.804 133.436,29.709 L 133.76,31.675 L 131.217,31.96 C 129.316,32.193 128.982,32.713 129.463,34.69 C 132.262,47.274 136.298,62.153 137.99,69.649 C 140.867,59.053 144.073,46.92 146.552,34.609 C 146.839,32.977 146.627,32.374 145.271,32.299 L 141.758,31.675 L 141.936,29.709 C 144.278,29.714 146.758,29.968 149.085,29.968 C 151.877,29.968 154.231,29.709 156.032,29.709 L 155.859,31.675 C 151.846,32.288 151.173,32.697 149.59,37.339 C 147.471,43.872 144.392,54.545 141.111,66.529 C 139.489,72.495 138.275,77.675 137.561,80.537 C 136.966,80.558 136.242,80.599 135.535,80.718 C 134.932,80.832 134.27,80.858 133.804,80.977 C 130.883,68.693 124.86,45.33 122.262,36.703 C 120.868,32.37 120.345,31.94 116.63,31.676 L 116.476,29.709"
   id="path9" />
<path
   d="M 175.28,48.323 C 172.403,49.944 169.337,51.536 165.479,53.599 C 162.204,55.365 159.893,56.599 157.753,58.301 C 154.827,60.515 153.544,63.969 153.544,67.977 C 153.544,74.824 157.339,80.987 163.666,80.987 C 167.635,80.987 172.085,78.011 175.43,73.381 C 176.088,78.286 178.799,80.987 182.928,80.987 C 185.609,80.987 187.59,80.06 188.426,79.144 L 188.576,77.473 C 187.914,77.752 187.293,77.87 186.423,77.87 C 184.294,77.87 182.222,76.359 182.222,71.397 C 182.222,62.559 182.222,42.45 182.222,38.87 C 182.222,37.147 181.898,35.012 180.983,33.587 C 179.702,31.515 176.792,28.575 170.704,28.575 C 161.829,28.575 155.946,35.574 155.946,40.216 C 155.946,41.848 156.748,42.684 157.964,43.235 C 159.17,43.809 160.391,43.983 161.335,43.887 L 162.341,43.052 C 162.665,35.919 165.091,30.679 169.798,30.679 C 173.969,30.679 175.28,34.223 175.28,39.245 L 175.28,48.323 M 161.334,66.523 C 161.334,60.78 163.484,58.173 165.727,56.516 C 169.403,53.749 172.736,52.308 175.279,50.961 L 175.354,64.489 C 175.354,65.819 175.292,67.759 175.036,68.706 C 173.235,74.005 170.41,76.603 167.264,76.603 C 163.352,76.603 161.334,72.117 161.334,66.642 L 161.334,66.523 L 161.334,66.523 z "
   id="path11" />
<path
   d="M 195.908,48.969 C 195.908,40.884 195.367,36.111 195.124,34.204 C 194.912,33.047 194.345,32.561 193.243,32.537 L 189.962,32.537 L 190.43,30.832 C 192.839,30.579 194.875,30.322 196.932,29.962 C 199.098,29.613 200.624,29.22 201.333,29.016 L 201.677,29.412 C 202.05,32.861 202.388,38.304 202.399,40.111 L 202.743,40.111 C 204.683,35.288 207.783,28.559 213.887,28.559 C 215.975,28.559 217.346,29.751 217.791,30.965 C 217.581,31.915 216.122,36.678 215.788,37.498 L 214.681,37.498 C 213.78,36.318 211.778,34.955 209.76,34.955 C 207.136,34.955 204.87,38.999 203.75,42.893 C 203.067,45.199 202.845,46.968 202.845,50.078 C 202.845,67.099 202.845,71.721 203.068,74.784 C 203.199,77.107 203.735,77.657 209.919,77.889 L 209.645,79.85 C 207.265,79.829 202.714,79.596 198.988,79.596 C 195.337,79.596 192.396,79.829 190.033,79.85 L 190.32,77.889 C 194.511,77.728 195.173,77.03 195.373,75.064 C 195.675,72.362 195.909,67.399 195.909,60.793 L 195.909,48.969"
   id="path13" />
<path
   d="M 237.822,3.399 C 242.883,3.045 243.646,3.14 243.758,5.091 C 244.022,9.97 244.107,16.959 244.107,30.407 C 242.232,29.142 239.522,28.557 236.948,28.557 C 222.741,28.557 216.961,42.865 216.961,57.138 C 216.961,63.709 218.175,69.943 220.899,74.578 C 223.17,78.351 226.826,80.995 231.83,80.995 C 235.988,80.995 239.911,78.548 243.804,74.692 L 244.032,74.718 C 244.107,75.664 244.435,78.205 244.896,81.15 C 246.231,80.706 248.334,80.276 250.655,79.997 C 253.03,79.856 255.503,79.618 256.559,79.577 L 257.115,77.539 L 253.997,77.725 C 252.828,77.704 251.762,77.405 251.467,75.511 C 251.073,72.379 251.043,68.442 251.043,57.981 L 251.074,25.644 C 251.095,13.013 251.478,5.02 251.646,-0.001 C 247.747,0.511 242.065,1.329 238.378,1.556 L 237.822,3.399 M 224.611,55.593 C 224.611,42.315 228.707,30.696 236.736,30.696 C 240.376,30.696 242.368,32.921 243.434,35.1 C 244.091,36.425 244.107,38.458 244.107,50.052 C 244.107,68.264 243.794,70.003 242.95,71.632 C 240.952,75.441 237.758,76.879 234.875,76.879 C 232.254,76.879 229.672,75.487 227.7,71.891 C 225.884,68.776 224.611,62.738 224.611,55.71 L 224.611,55.593 z "
   id="path15" />
<path
   d="M 290.02,39.696 C 291.174,39.538 292.659,39.347 294.297,39.347 C 300.708,39.347 304.31,41.945 306.245,44.465 C 308.247,47.381 309.207,51.774 309.207,58.101 C 309.207,63.314 308.475,67.998 306.979,71.068 C 304.935,75.3 300.627,77.448 294.641,77.448 C 291.583,77.448 290.592,76.838 290.48,75.642 C 290.183,70.798 290.02,66.499 290.02,57.024 L 290.02,39.696 M 275.777,79.916 C 278.382,79.657 281.839,79.563 283.65,79.563 C 285.572,79.646 286.905,79.662 288.615,79.76 C 290.527,79.858 292.033,79.858 294.612,79.858 C 300.156,79.858 306.139,78.787 310.7,75.315 C 315.836,71.429 318.157,65.977 318.157,58.316 C 318.157,50.687 315.512,46.157 312.418,43.432 C 309.35,40.703 304.86,39.245 300.411,38.26 L 300.411,37.81 C 302.292,37.238 303.854,36.449 305.593,35.626 C 309.567,33.329 314.038,28.775 314.038,20.294 C 314.038,14.978 312.703,11.073 310.064,8.175 C 307.368,5.275 303.167,3.834 295.594,3.834 C 290.841,3.834 287.589,4.02 284.5,4.142 C 280.956,4.206 278.619,4.317 276.083,4.418 L 276.083,6.526 C 281.664,6.283 281.977,6.637 282.179,8.146 C 282.407,12.862 282.497,18.374 282.497,25.352 L 282.497,57.892 C 282.497,65.264 282.306,70.922 282.088,75.321 C 281.902,77.375 281.234,77.742 275.778,78.011 L 275.778,79.916 L 275.777,79.916 z M 290.036,22.005 C 290.036,15.164 290.279,11.821 290.411,8.207 C 290.416,6.575 291.456,5.967 295.052,5.967 C 299.59,5.967 302.196,7.475 303.743,10.337 C 304.86,12.622 305.655,16.096 305.655,21.449 C 305.655,33.716 301.2,37.244 293.929,37.244 C 292.537,37.244 291.518,37.223 290.035,37.107 L 290.035,22.005 L 290.036,22.005 z "
   id="path17" />
<path
   d="M 343.595,29.842 C 345.789,29.842 348.707,29.72 351.077,29.598 C 353.514,29.453 355.32,29.221 356.35,29.133 C 356.094,32.76 356.073,38.669 355.967,45.51 L 355.967,60.85 C 355.967,70.415 356.073,73.676 356.317,75.901 C 356.519,77.603 356.901,77.754 361.538,77.592 L 361.504,79.29 C 359.879,79.408 357.706,79.667 355.274,80.087 C 352.837,80.288 350.839,80.655 349.158,81.018 C 349.171,78.384 348.969,74.798 349.006,71.57 C 346.155,75.906 341.032,80.998 334,80.998 C 329.565,80.998 327.113,79.021 326.122,76.697 C 325.565,75.275 325.283,73.562 325.283,71.042 C 325.309,64.138 325.56,52.31 325.581,43.482 C 325.581,37.521 325.511,35.066 325.4,33.508 C 325.289,31.637 324.647,31.479 320.075,31.479 L 320.469,29.771 C 322.487,29.771 325.294,29.678 327.79,29.427 C 330.243,29.22 332.246,28.988 333.221,28.755 C 332.941,31.373 332.644,39.92 332.523,53.277 C 332.523,66.643 332.523,70.756 332.831,73.085 C 333.17,75.621 334.525,77.303 337.185,77.303 C 341.987,77.303 345.992,73.381 348.091,67.141 C 349.028,64.39 349.033,62.779 349.033,60.591 L 349.033,46.946 C 349.033,39.665 348.901,35.929 348.754,33.411 C 348.606,31.737 347.985,31.605 343.688,31.546 L 343.595,29.842"
   id="path19" />
<path
   d="M 385.84,43.914 C 385.276,36.869 382.502,30.832 377.433,30.832 C 373.247,30.832 370.921,34.107 370.921,39.559 C 370.921,42.022 371.508,44.13 373.278,45.89 C 375.552,48.011 382.269,52.546 385.415,55.079 C 389.162,58.22 390.807,61.956 390.807,66.15 C 390.807,75.2 384.38,80.996 375.488,80.996 C 371.185,80.996 366.746,79.909 364.749,78.729 C 364.759,76.732 364.86,67.816 364.679,64.18 L 366.358,63.736 C 366.539,66.056 367.15,68.846 368.107,71.583 C 369.851,76.437 373.002,78.725 376.808,78.725 C 381.69,78.725 384.929,75.61 384.857,69.726 C 384.857,67.724 384.236,65.183 382.342,63.367 C 379.832,60.962 373.659,56.498 370.947,54.253 C 367.465,51.431 365.664,47.952 365.664,42.597 C 365.664,35.034 370.347,28.559 378.285,28.559 C 381.354,28.559 383.708,29.731 384.924,30.833 L 385.82,27.791 L 387.512,28.443 C 387.119,33.685 387.15,38.862 387.528,43.359 L 385.84,43.914"
   id="path21" />
<path
   d="M 411.097,79.849 C 408.815,79.849 405.85,79.595 401.689,79.595 C 397.659,79.595 395.009,79.849 392.96,79.849 L 393.048,77.888 C 397.7,77.753 398.445,76.982 398.579,74.881 C 398.704,72.708 398.994,68.03 398.994,59.016 L 398.994,46.674 C 398.994,40.313 398.771,35.94 398.719,34.113 C 398.678,32.405 397.834,32.121 392.779,32.39 L 392.779,30.556 C 394.565,30.362 397.318,30.129 399.977,29.81 C 402.73,29.461 405.187,29.047 406.373,28.703 C 406.331,30.843 405.928,37.107 405.928,46.431 L 405.928,59.763 C 405.928,68.408 406.207,72.381 406.331,74.974 C 406.445,77.355 407.273,77.644 411.361,77.888 L 411.097,79.849 M 401.974,6.396 C 404.804,6.396 406.134,8.202 406.134,11.281 C 406.134,14.031 404.06,15.775 401.483,15.775 C 399.248,15.775 397.468,13.982 397.468,11.227 C 397.468,8.557 399.217,6.396 401.866,6.396 L 401.974,6.396 L 401.974,6.396 z "
   id="path23" />
<path
   d="M 414.47,77.888 C 418.796,77.727 419.298,77.287 419.448,74.25 C 419.692,70.565 419.8,66.586 419.8,58.624 L 419.8,49.113 C 419.8,42.441 419.723,37.647 419.562,34.408 C 419.458,32.677 418.905,32.416 414.429,32.537 L 414.46,30.695 C 416.245,30.674 418.775,30.463 420.747,30.216 C 422.998,29.942 425.057,29.481 426.305,29.132 C 426.512,31.605 426.797,34.35 426.832,36.099 C 430.128,32.738 434.123,28.562 439.779,28.562 C 444.912,28.562 447.748,31.224 449.072,34.508 C 449.76,36.166 450.04,38.158 450.04,40.412 L 450.04,74.864 C 450.04,77.255 450.496,77.482 455.354,77.886 L 455.069,79.847 C 452.797,79.847 449.956,79.593 445.9,79.593 C 442.087,79.593 439.633,79.847 438.061,79.847 L 438.315,77.886 C 441.843,77.751 442.454,77.012 442.677,74.915 C 442.811,72.628 443.106,66.931 443.106,56.879 C 443.127,40.352 443.091,39.325 442.527,37.666 C 441.58,34.699 439.64,32.96 436.364,32.96 C 432.499,32.96 429.477,35.478 427.681,39.462 C 426.889,41.048 426.739,42.207 426.739,44.32 L 426.739,63.994 C 426.739,68.27 426.775,71.815 426.971,74.34 C 427.277,77.213 427.711,77.59 431.726,77.886 L 431.37,79.847 C 429.807,79.847 425.176,79.593 422.474,79.593 C 419.649,79.593 416.482,79.769 414.469,79.847 L 414.469,77.888"
   id="path25" />
<path
   d="M 487.063,72.505 L 486.209,72.222 C 484.434,75.372 481.702,77.592 477.392,77.592 C 473.821,77.592 470.773,75.973 468.849,72.33 C 467.11,69.173 465.392,62.716 465.869,53.145 C 468.756,53.145 472.027,53.124 474.329,53.082 C 479.074,53.074 484.41,52.613 486.935,51.904 C 488.094,51.57 488.472,49.149 488.472,47.193 C 488.586,41.04 486.619,28.575 475.333,28.575 C 462.541,28.575 457.936,44.241 457.936,56.732 C 457.936,63.009 459.184,69.545 461.274,73.322 C 463.939,78.186 468.301,80.996 474.717,80.996 C 480.513,80.996 484.331,78.259 486.526,75.501 L 487.063,72.505 M 474.728,30.68 C 481.418,30.68 481.367,41.273 481.367,45.58 C 481.367,48.822 480.709,50.03 479.276,50.268 C 477.651,50.597 474.956,50.873 472.063,50.873 C 470.123,50.873 468.125,50.873 466.091,50.873 C 466.195,43.264 468.611,30.68 474.614,30.68 L 474.728,30.68 L 474.728,30.68 z "
   id="path27" />
<path
   d="M 513.982,43.914 C 513.413,36.869 510.645,30.832 505.579,30.832 C 501.388,30.832 499.059,34.107 499.059,39.559 C 499.059,42.022 499.643,44.13 501.418,45.89 C 503.685,48.011 510.411,52.546 513.553,55.079 C 517.299,58.22 518.939,61.956 518.939,66.15 C 518.939,75.2 512.517,80.996 503.627,80.996 C 499.322,80.996 494.882,79.909 492.885,78.729 C 492.896,76.732 492.999,67.816 492.818,64.18 L 494.5,63.736 C 494.671,66.056 495.281,68.846 496.243,71.583 C 497.987,76.437 501.144,78.725 504.947,78.725 C 509.822,78.725 513.066,75.61 512.993,69.726 C 512.993,67.724 512.367,65.183 510.478,63.367 C 507.974,60.962 501.8,56.498 499.084,54.253 C 495.606,51.431 493.795,47.952 493.795,42.597 C 493.795,35.034 498.488,28.559 506.426,28.559 C 509.485,28.559 511.844,29.731 513.065,30.833 L 513.955,27.791 L 515.642,28.443 C 515.259,33.685 515.29,38.862 515.663,43.359 L 513.982,43.914"
   id="path29" />
<path
   d="M 544.341,43.914 C 543.782,36.869 541.008,30.832 535.938,30.832 C 531.747,30.832 529.423,34.107 529.423,39.559 C 529.423,42.022 530.008,44.13 531.783,45.89 C 534.055,48.011 540.771,52.546 543.917,55.079 C 547.664,58.22 549.309,61.956 549.309,66.15 C 549.309,75.2 542.887,80.996 533.993,80.996 C 529.688,80.996 525.248,79.909 523.25,78.729 C 523.266,76.732 523.359,67.816 523.183,64.18 L 524.865,63.736 C 525.041,66.056 525.652,68.846 526.609,71.583 C 528.353,76.437 531.509,78.725 535.307,78.725 C 540.187,78.725 543.431,75.61 543.359,69.726 C 543.359,67.724 542.738,65.183 540.839,63.367 C 538.334,60.962 532.167,56.498 529.455,54.253 C 525.968,51.431 524.166,47.952 524.166,42.597 C 524.166,35.034 528.849,28.559 536.787,28.559 C 539.855,28.559 542.215,29.731 543.426,30.833 L 544.321,27.791 L 546.013,28.443 C 545.619,33.685 545.656,38.862 546.034,43.359 L 544.341,43.914"
   id="path31" />
<path
   d="M 576.268,50.443 C 576.268,66.788 576.087,71.952 575.808,74.653 C 575.508,77.023 574.784,77.716 569.878,77.887 L 569.878,79.848 C 573.889,79.848 577.174,79.594 580.672,79.594 C 584.247,79.594 588.108,79.848 590.732,79.848 L 590.969,77.887 C 584.698,77.379 584.279,77.013 584.093,73.958 C 583.824,69.275 583.746,64.753 583.746,53.473 L 583.746,41.197 L 585.144,41.197 C 596.015,41.197 601.34,45.435 601.511,55.905 C 601.548,60.283 601.635,66.906 601.64,70.441 C 601.665,78.394 604.931,80.557 610.188,80.557 C 612.434,80.557 614.716,80.117 616.071,79.377 L 616.486,77.234 C 615.316,77.761 613.934,77.886 612.693,77.886 C 611.084,77.886 610.178,76.83 610.178,74.719 C 610.178,68.918 610.069,58.168 608.652,52.986 C 607.218,46.738 602.204,42.394 592.993,39.892 L 592.993,39.574 C 601.816,36.873 608.046,31.907 608.046,20.849 C 608.046,16.265 607.12,11.815 604.274,8.635 C 601.599,5.626 597.423,3.833 589.309,3.833 C 585.071,3.833 581.201,4.056 577.651,4.156 C 574.22,4.262 572.083,4.397 570.194,4.417 L 569.811,6.303 L 574.09,6.456 C 575.611,6.471 575.964,6.911 576.072,8.437 C 576.17,11.516 576.268,17.674 576.268,30.02 L 576.268,50.443 M 583.745,25.58 C 583.911,13.687 583.999,9.829 584.201,8.424 C 584.294,7.12 584.651,6.67 585.396,6.458 C 586.063,6.3 587.393,6.109 589.059,6.109 C 594.203,6.109 596.868,8.287 598.228,11.57 C 599.304,14.071 599.806,17.601 599.806,21.513 C 599.806,32.152 596.531,39.088 585.121,39.088 L 583.744,39.088 L 583.744,25.58 L 583.745,25.58 z "
   id="path33" />
<path
   d="M 646.626,72.505 L 645.767,72.222 C 643.992,75.372 641.26,77.592 636.95,77.592 C 633.379,77.592 630.337,75.973 628.412,72.33 C 626.673,69.173 624.945,62.716 625.427,53.145 C 628.314,53.145 631.579,53.124 633.892,53.082 C 638.632,53.074 643.967,52.613 646.497,51.904 C 647.645,51.57 648.034,49.149 648.034,47.193 C 648.147,41.04 646.177,28.575 634.885,28.575 C 622.099,28.575 617.493,44.241 617.493,56.732 C 617.493,63.009 618.735,69.545 620.836,73.322 C 623.501,78.186 627.858,80.996 634.275,80.996 C 640.075,80.996 643.889,78.259 646.084,75.501 L 646.626,72.505 M 634.29,30.68 C 640.975,30.68 640.929,41.273 640.929,45.58 C 640.929,48.822 640.266,50.03 638.833,50.268 C 637.208,50.597 634.512,50.873 631.62,50.873 C 629.684,50.873 627.687,50.873 625.648,50.873 C 625.752,43.264 628.173,30.68 634.17,30.68 L 634.29,30.68 L 634.29,30.68 z "
   id="path35" />
<path
   d="M 647.102,29.709 C 649.255,29.862 652.406,29.983 655.2,29.968 C 658,29.968 661.984,29.804 664.065,29.709 L 664.385,31.675 L 661.839,31.96 C 659.94,32.193 659.604,32.713 660.09,34.69 C 662.884,47.274 666.926,62.153 668.612,69.649 C 671.489,59.053 674.697,46.92 677.176,34.609 C 677.459,32.977 677.243,32.374 675.887,32.299 L 672.378,31.675 L 672.56,29.709 C 674.904,29.714 677.382,29.968 679.706,29.968 C 682.501,29.968 684.854,29.709 686.655,29.709 L 686.474,31.675 C 682.469,32.288 681.797,32.697 680.213,37.339 C 678.091,43.872 675.012,54.545 671.733,66.529 C 670.113,72.495 668.896,77.675 668.182,80.537 C 667.592,80.558 666.858,80.599 666.16,80.718 C 665.549,80.832 664.891,80.858 664.426,80.977 C 661.508,68.693 655.485,45.33 652.887,36.703 C 651.495,32.37 650.967,31.94 647.252,31.676 L 647.102,29.709"
   id="path37" />
<path
   d="M 698.315,28.703 C 698.268,30.843 697.869,37.107 697.869,46.431 L 697.869,59.763 C 697.869,68.408 698.144,72.381 698.268,74.974 C 698.381,77.355 699.215,77.644 703.297,77.888 L 703.033,79.849 C 700.756,79.849 697.786,79.595 693.631,79.595 C 689.596,79.595 686.946,79.849 684.898,79.849 L 684.98,77.888 C 689.637,77.753 690.382,76.982 690.511,74.881 C 690.635,72.708 690.925,68.03 690.925,59.016 L 690.925,46.674 C 690.925,40.313 690.708,35.373 690.655,33.547 C 690.614,31.839 689.765,31.554 684.716,31.823 L 684.716,29.842 C 686.496,29.651 689.258,29.699 691.913,29.386 C 694.667,29.037 697.621,28.76 698.315,28.703 M 693.912,6.396 C 696.747,6.396 698.077,8.202 698.077,11.281 C 698.077,14.031 696.002,15.775 693.42,15.775 C 691.18,15.775 689.405,13.982 689.405,11.227 C 689.405,8.557 691.153,6.396 693.798,6.396 L 693.912,6.396 L 693.912,6.396 z "
   id="path39" />
<path
   d="M 735.147,72.505 L 734.288,72.222 C 732.513,75.372 729.775,77.592 725.471,77.592 C 721.901,77.592 718.858,75.973 716.933,72.33 C 715.19,69.173 713.467,62.716 713.948,53.145 C 716.836,53.145 720.1,53.124 722.408,53.082 C 727.149,53.074 732.483,52.613 735.018,51.904 C 736.166,51.57 736.555,49.149 736.555,47.193 C 736.663,41.04 734.698,28.575 723.408,28.575 C 710.616,28.575 706.015,44.241 706.015,56.732 C 706.015,63.009 707.257,69.545 709.353,73.322 C 712.023,78.186 716.379,80.996 722.796,80.996 C 728.597,80.996 732.41,78.259 734.605,75.501 L 735.147,72.505 M 722.806,30.68 C 729.496,30.68 729.45,41.273 729.45,45.58 C 729.45,48.822 728.788,50.03 727.354,50.268 C 725.729,50.597 723.034,50.873 720.14,50.873 C 718.2,50.873 716.203,50.873 714.164,50.873 C 714.272,43.264 716.689,30.68 722.691,30.68 L 722.806,30.68 L 722.806,30.68 z "
   id="path41" />
<path
   d="M 736.498,29.699 C 738.697,29.816 741.424,29.999 744.974,29.979 C 748.162,29.979 751.37,29.81 754.205,29.699 L 754.505,31.606 L 751.493,32.056 C 749.599,32.199 749.356,32.894 749.735,34.553 C 751.509,43.008 754.887,56.33 757.816,69.582 C 760.503,60.462 765.381,39.262 767.665,29.979 C 768.963,30.124 769.838,30.124 771.198,29.942 C 772.735,36.883 778.707,59.302 781.413,70.126 C 785.619,54.697 788.761,40.439 789.568,34.918 C 789.827,33.074 789.713,32.311 787.752,32.057 L 784,31.606 L 784.43,29.699 C 786.665,29.699 789.552,29.979 792.673,29.979 C 795.861,29.979 798.085,29.699 799.824,29.699 L 800,31.458 C 795.223,32.009 794.597,32.682 792.936,37.608 C 789.966,46.687 784.838,65.465 781.185,80.557 C 780.051,80.573 779.56,80.691 779.141,80.717 C 778.686,80.815 778.35,80.857 777.428,80.996 C 775.254,71.77 771.177,57.049 767.202,42.521 C 762.768,59.731 759.581,70.761 757.329,80.996 C 756.595,80.861 755.85,80.82 755.156,80.717 C 754.541,80.67 754.023,80.645 753.625,80.572 C 749.967,64.05 744.486,42.722 742.064,35.185 C 741.138,32.319 740.388,31.887 736.321,31.604 L 736.498,29.699"
   id="path43" />
</svg>