<svg xmlns="http://www.w3.org/2000/svg" viewBox="74 185 836 155" width="140" height="40" role="img" aria-label="The Muse">
  <title>The Muse</title>
  <g>
    <path fill="#444444" d="M87.442,247.199h-13.2V227h13.8V199.2h24.8V227h23.2v20.2h-23.2v41.199c0,16.8,13.2,19.199,20.2,19.199c2.8,0,4.6-0.399,4.6-0.399v22.2c0,0-3.2,0.6-7.8,0.6c-14.2,0-42.399-4.2-42.399-38.399V247.199z"/>
    <path fill="#444444" d="M159.042,213c0-3-1.6-4.4-4.4-4.4h-8V187h24.2c9.4,0,13.6,4.2,13.6,13.4v35.799c0,5-0.4,8.6-0.4,8.6h0.4c4.8-9.8,17.4-20.2,35-20.2c22.8,0,35.6,11.8,35.6,38.799v39.799c0,2.8,1.6,4.399,4.4,4.399h8v21.4h-24.2c-9.4,0-13.4-4-13.4-13.6v-46.799c0-12.4-3.4-20.8-16.2-20.8c-13.4,0-23.8,8.8-27.6,21.2c-1.2,4-1.6,8.4-1.6,13.2v46.799h-25.399V213z"/>
    <path fill="#444444" d="M329.442,224.6c29.199,0,45.199,21.4,45.199,48.399c0,3-0.6,9.399-0.6,9.399h-70.399c2,18,15.2,27.4,30.6,27.4c16.4,0,28.6-11.4,28.6-11.4l10.6,17.6c0,0-15.6,15.4-40.999,15.4c-33.8,0-54.799-24.4-54.799-53.399C277.643,246.599,298.842,224.6,329.442,224.6z M348.642,264.799c-0.4-12.2-8.8-20.6-19.2-20.6c-13,0-22.2,7.8-25,20.6H348.642z"/>
    <path fill="#3EAAC5" d="M400.128,244.174c0-2.814-1.608-4.422-4.422-4.422h-8.442v-11.859h14.07c8.442,0,12.261,3.618,12.261,11.256v4.623c0,4.02-0.402,7.236-0.402,7.236h0.402c5.025-13.668,20.904-25.527,36.583-25.527c18.693,0,28.341,8.643,31.356,25.327h0.402c5.427-13.668,20.1-25.327,37.186-25.327c24.522,0,33.567,14.271,33.567,39.196v48.04c0,3.016,1.608,4.422,4.422,4.422h8.442v11.859h-14.271c-8.643,0-12.261-3.618-12.261-12.262v-48.643c0-16.482-3.417-30.15-21.909-30.15c-15.276,0-27.94,13.668-31.96,28.542c-1.407,4.422-1.81,9.246-1.81,14.673v47.839h-13.668v-60.904c0-15.276-2.211-30.15-21.306-30.15c-16.482,0-28.744,14.271-32.965,29.749c-1.206,4.221-1.608,8.844-1.608,13.467v47.839h-13.668V244.174z"/>
    <path fill="#3EAAC5" d="M586.857,244.174c0-2.814-1.607-4.422-4.422-4.422h-8.442v-11.859h14.271c8.644,0,12.262,3.618,12.262,11.859v48.843c0,15.88,2.612,29.95,22.11,29.95c22.914,0,37.186-20.302,37.186-42.211v-48.442h13.668v84.824c0,3.016,1.608,4.422,4.423,4.422h8.441v11.859h-13.869c-8.442,0-12.261-3.618-12.261-11.256v-4.623c0-4.021,0.401-7.236,0.401-7.236h-0.401c-4.021,9.85-17.287,25.527-39.397,25.527c-23.919,0-33.97-12.864-33.97-39.195V244.174z"/>
    <path fill="#3EAAC5" d="M704.643,304.274c0,0,11.257,15.276,31.156,15.276c11.256,0,21.306-5.428,21.306-16.08c0-22.111-56.683-18.09-56.683-50.653c0-18.291,15.679-27.336,35.979-27.336c10.251,0,30.754,4.02,30.754,18.292v8.643h-12.864v-4.824c0-7.437-10.854-10.251-17.487-10.251c-14.07,0-22.513,4.824-22.513,14.673c0,22.713,56.684,17.487,56.684,51.055c0,16.885-15.276,28.342-35.377,28.342c-26.332,0-38.794-17.688-38.794-17.688L704.643,304.274z"/>
    <path fill="#3EAAC5" d="M837.301,225.481c27.94,0,42.412,21.507,42.412,46.633c0,2.412-0.401,6.834-0.401,6.834h-77.588c0.402,25.527,18.291,40.2,39.195,40.2c18.493,0,30.352-12.462,30.352-12.462l6.634,10.251c0,0-14.674,14.473-37.588,14.473c-29.949,0-52.864-21.709-52.864-52.864C787.452,245.38,810.166,225.481,837.301,225.481z M865.643,268.094c-0.804-20.904-13.668-31.156-28.542-31.156c-16.684,0-31.357,10.854-34.774,31.156H865.643z"/>
  </g>
</svg>
